<svg xmlns="http://www.w3.org/2000/svg" width="25" height="24" viewBox="0 0 25 24"><g><g><path fill="#fff" d="M22.256 20.272a.95.95 0 0 1-.96.953H4.48a.95.95 0 0 1-.96-.953V10.148H5.74a6.79 6.79 0 0 0-.315 2.047c0 4 3.367 7.233 7.504 7.233 4.153 0 7.519-3.234 7.519-7.233 0-.703-.11-1.406-.315-2.047h2.124zm-4.468-8.327c0 2.578-2.17 4.671-4.86 4.671-2.674 0-4.845-2.093-4.845-4.671 0-2.578 2.17-4.671 4.845-4.671 2.69 0 4.86 2.093 4.86 4.67zm4.468-5.625c0 .594-.488 1.078-1.085 1.078h-2.738a1.084 1.084 0 0 1-1.085-1.078V3.742c0-.593.488-1.078 1.085-1.078h2.738c.597 0 1.085.485 1.085 1.078zm2.737-3.25c0-1.687-1.4-3.077-3.099-3.077H3.93C2.23-.007.83 1.383.83 3.07v17.841c0 1.688 1.401 3.078 3.1 3.078h17.964c1.7 0 3.1-1.39 3.1-3.078z"/></g></g></svg>
